<svg width="66" height="19" viewBox="0 0 66 19" fill="none" xmlns="http://www.w3.org/2000/svg">
<path d="M9.60008 17.2039C8.62599 17.3749 7.63477 17.4262 6.60941 17.5628L3.48189 8.40272V17.9559C2.5078 18.0584 1.61915 18.1952 0.696289 18.3319V0.831879H3.29402L6.84863 10.7612V0.831879H9.60008V17.2039ZM14.9834 7.24057C16.043 7.24057 17.6666 7.18929 18.6406 7.18929V9.9236C17.4272 9.9236 16.0088 9.9236 14.9834 9.97489V14.0423C16.5899 13.9398 18.1964 13.803 19.8198 13.7517V16.3834L12.249 16.9817V0.831879H19.8198V3.56626H14.9834V7.24057ZM29.9882 3.56632H27.1514V16.1444C26.2285 16.1444 25.3056 16.1444 24.4171 16.1785V3.56632H21.5802V0.831879H29.9884L29.9882 3.56632ZM34.4316 7.05264H38.1743V9.78695H34.4316V15.9906H31.7483V0.831879H39.3877V3.56626H34.4316V7.05264ZM43.831 13.598C45.3862 13.6321 46.9584 13.7519 48.4795 13.8372V16.5374C46.0357 16.3835 43.5918 16.2299 41.0967 16.1785V0.831879H43.831V13.598ZM50.7866 16.7254C51.6581 16.7768 52.581 16.8281 53.4697 16.9304V0.831879H50.7866V16.7254ZM65.4497 0.831879L61.9804 9.15466L65.4497 18.3319C64.4243 18.1952 63.3989 18.0072 62.3735 17.8362L60.4082 12.7778L58.4089 17.4262C57.4175 17.2552 56.4605 17.2039 55.4694 17.0672L58.9899 9.05203L55.8111 0.831879H58.7504L60.5449 5.42906L62.459 0.831879H65.4497V0.831879Z" fill="#4C4C4D"/>
</svg>
