<svg width="76" height="21" viewBox="0 0 76 21" fill="none" xmlns="http://www.w3.org/2000/svg">
<path d="M26.8023 17.2851V8.79465H26.9536L33.1338 17.2851H35.0786V4.81675H32.9177V13.2858H32.7664L26.5862 4.81675H24.6414V17.2851H26.8023ZM41.194 17.4776C44.0464 17.4776 45.7968 15.6383 45.7968 12.5587C45.7968 9.5004 44.0464 7.63977 41.194 7.63977C38.3632 7.63977 36.5912 9.5004 36.5912 12.5587C36.6129 15.6383 38.3416 17.4776 41.194 17.4776ZM41.194 15.6811C39.6814 15.6811 38.817 14.5476 38.817 12.5587C38.817 10.5911 39.6814 9.43624 41.194 9.43624C42.7066 9.43624 43.571 10.5911 43.571 12.5587C43.571 14.5476 42.7066 15.6811 41.194 15.6811ZM47.7632 5.52251V7.89641H46.2505V9.60733H47.7632V14.7615C47.7632 16.6007 48.6276 17.3279 50.8317 17.3279C51.2423 17.3279 51.6528 17.2851 51.977 17.2209V15.5528C51.7177 15.5742 51.5448 15.5956 51.2423 15.5956C50.3347 15.5956 49.9241 15.1892 49.9241 14.2482V9.60733H51.977V7.89641H49.9241V5.52251H47.7632ZM53.2735 17.2851H55.4344V7.83225H53.2735V17.2851ZM54.354 6.27103C55.0671 6.27103 55.6505 5.6936 55.6505 4.98784C55.6505 4.2607 55.0671 3.68327 54.354 3.68327C53.6409 3.68327 53.0574 4.2607 53.0574 4.98784C53.0574 5.6936 53.6409 6.27103 54.354 6.27103ZM61.3554 17.4776C64.2078 17.4776 65.9581 15.6383 65.9581 12.5587C65.9581 9.5004 64.2078 7.63977 61.3554 7.63977C58.5246 7.63977 56.7526 9.5004 56.7526 12.5587C56.7526 15.6383 58.4813 17.4776 61.3554 17.4776ZM61.3554 15.6811C59.8427 15.6811 58.9783 14.5476 58.9783 12.5587C58.9783 10.5911 59.8427 9.43624 61.3554 9.43624C62.8464 9.43624 63.7324 10.5911 63.7324 12.5587C63.7108 14.5476 62.8464 15.6811 61.3554 15.6811ZM67.233 17.2851H69.394V11.7888C69.394 10.3986 70.2151 9.52179 71.4901 9.52179C72.8082 9.52179 73.4133 10.2489 73.4133 11.6818V17.2851H75.5742V11.1685C75.5742 8.90158 74.4073 7.63977 72.2896 7.63977C70.8634 7.63977 69.9126 8.28137 69.4588 9.3507H69.3075V7.83225H67.2114C67.2331 7.83225 67.233 17.2851 67.233 17.2851Z" fill="#4C4C4D"/>
<path fill-rule="evenodd" clip-rule="evenodd" d="M3.92188 4.01872C4.55081 4.52611 4.7783 4.48605 5.95589 4.40594L17.0493 3.73833C17.2901 3.73833 17.0894 3.49799 17.0091 3.47128L15.1625 2.14942C14.8145 1.88238 14.3328 1.56192 13.4362 1.64204L2.70415 2.42981C2.31608 2.46987 2.23579 2.67015 2.39637 2.81703L3.92188 4.01872ZM4.59096 6.59569V18.2388C4.59096 18.8663 4.89874 19.0933 5.60797 19.0533L17.7987 18.3456C18.5079 18.3056 18.5882 17.8783 18.5882 17.3709V5.80792C18.5882 5.30053 18.3874 5.02014 17.9592 5.06019L5.2199 5.80792C4.75154 5.84797 4.59096 6.08831 4.59096 6.59569ZM16.6211 7.22325C16.7014 7.5704 16.6211 7.93091 16.2731 7.97097L15.6844 8.09114V16.6899C15.1758 16.957 14.7075 17.1172 14.306 17.1172C13.6771 17.1172 13.5165 16.9169 13.0482 16.3294L9.20763 10.3076V16.1291L10.4254 16.3962C10.4254 16.3962 10.4254 17.1039 9.4485 17.1039L6.74541 17.2641C6.66512 17.1039 6.74541 16.7166 7.01304 16.6365L7.72227 16.4362V8.74539L6.74541 8.66528C6.66512 8.31812 6.86584 7.81074 7.41449 7.77069L10.3183 7.5704L14.3194 13.659V8.27807L13.3024 8.1579C13.2221 7.73063 13.5433 7.41018 13.9314 7.37012L16.6211 7.22325ZM1.80757 1.36164L12.9813 0.547157C14.3462 0.426988 14.7075 0.507101 15.5639 1.13465L19.1234 3.63151C19.7122 4.05878 19.913 4.17895 19.913 4.64628V18.359C19.913 19.2135 19.6052 19.7209 18.5079 19.801L5.54106 20.5888C4.71139 20.6288 4.32333 20.5087 3.89511 19.9612L1.25893 16.5564C0.790569 15.9289 0.589844 15.4615 0.589844 14.9141V2.72356C0.589844 2.0159 0.911003 1.44175 1.80757 1.36164Z" fill="#4C4C4D"/>
</svg>
