<svg width="82" height="26" viewBox="0 0 82 26" fill="none" xmlns="http://www.w3.org/2000/svg">
<path d="M12.2473 0.795929C5.48183 0.795929 -0.00292969 6.28054 -0.00292969 13.046C-0.00292969 19.8118 5.48183 25.2959 12.2473 25.2959C19.0135 25.2959 24.4977 19.8118 24.4977 13.046C24.4977 6.28098 19.0135 0.796514 12.2472 0.796514L12.2473 0.795929ZM17.8652 18.4641C17.6458 18.8239 17.1747 18.938 16.8149 18.7171C13.9386 16.9603 10.3178 16.5624 6.05365 17.5366C5.64274 17.6302 5.23315 17.3728 5.13953 16.9617C5.04546 16.5507 5.3019 16.1411 5.71383 16.0474C10.3803 14.9813 14.383 15.4404 17.6121 17.4137C17.972 17.6346 18.0861 18.1042 17.8652 18.4641ZM19.3646 15.1285C19.0881 15.5779 18.5 15.7198 18.051 15.4433C14.7581 13.4193 9.73868 12.8332 5.84388 14.0154C5.33876 14.168 4.80527 13.8833 4.65196 13.3791C4.49983 12.874 4.78464 12.3415 5.28888 12.1879C9.73781 10.838 15.2686 11.4919 19.0501 13.8156C19.4992 14.0921 19.6411 14.6801 19.3646 15.1286V15.1285ZM19.4933 11.6551C15.5451 9.31007 9.03111 9.09445 5.26153 10.2385C4.6562 10.4221 4.01607 10.0804 3.83263 9.47508C3.64919 8.86946 3.99061 8.22976 4.59637 8.04574C8.92359 6.73211 16.1171 6.98592 20.6627 9.68441C21.2083 10.0075 21.3868 10.7107 21.0635 11.2545C20.7417 11.7989 20.0366 11.9784 19.4939 11.6551H19.4933ZM33.3259 12.1045C31.2106 11.6001 30.8347 11.2461 30.8347 10.5023C30.8347 9.79953 31.4959 9.3266 32.4804 9.3266C33.4341 9.3266 34.3791 9.68572 35.3709 10.425C35.4002 10.4474 35.4382 10.4563 35.4748 10.4505C35.5128 10.4449 35.545 10.4246 35.567 10.394L36.5997 8.93822C36.6421 8.87824 36.6304 8.79559 36.5734 8.7498C35.3929 7.80291 34.0646 7.34255 32.5111 7.34255C30.2276 7.34255 28.6317 8.71309 28.6317 10.674C28.6317 12.7768 30.0082 13.5214 32.3867 14.0962C34.4099 14.5624 34.7522 14.953 34.7522 15.651C34.7522 16.4249 34.0617 16.9061 32.9499 16.9061C31.7153 16.9061 30.7074 16.4892 29.581 15.515C29.5532 15.4901 29.5152 15.4799 29.4801 15.4813C29.4421 15.4843 29.4084 15.5018 29.385 15.5296L28.2264 16.9076C28.1782 16.9661 28.184 17.051 28.2396 17.1007C29.5503 18.271 31.1624 18.8883 32.9031 18.8883C35.3636 18.8883 36.9537 17.5439 36.9537 15.4623C36.9581 13.7059 35.9063 12.7331 33.3303 12.1064L33.3259 12.1045ZM42.5213 10.0185C41.4549 10.0185 40.5801 10.4386 39.8575 11.2995V10.3305C39.8575 10.254 39.796 10.1917 39.72 10.1917H37.8256C37.7495 10.1917 37.6881 10.254 37.6881 10.3305V21.0972C37.6881 21.1732 37.7495 21.2361 37.8256 21.2361H39.72C39.796 21.2361 39.8575 21.1732 39.8575 21.0972V17.699C40.5801 18.5079 41.4549 18.9044 42.5213 18.9044C44.5034 18.9044 46.5104 17.3786 46.5104 14.4619C46.5134 11.5445 44.5064 10.0184 42.5227 10.0184L42.5213 10.0185ZM44.3074 14.4619C44.3074 15.9465 43.3931 16.9837 42.0824 16.9837C40.7878 16.9837 39.8106 15.8997 39.8106 14.4619C39.8106 13.0239 40.7878 11.9402 42.0824 11.9402C43.3712 11.9401 44.3074 13.0004 44.3074 14.4617V14.4619ZM51.6523 10.0185C49.0997 10.0185 47.1 11.984 47.1 14.4936C47.1 16.9763 49.0865 18.9205 51.6216 18.9205C54.183 18.9205 56.1886 16.9617 56.1886 14.4619C56.1886 11.9705 54.1962 10.0188 51.6523 10.0188V10.0185ZM51.6523 16.9983C50.2948 16.9983 49.2708 15.907 49.2708 14.4611C49.2708 13.0087 50.2597 11.9547 51.6216 11.9547C52.9879 11.9547 54.0177 13.0456 54.0177 14.4929C54.0177 15.945 53.023 16.9983 51.6523 16.9983ZM61.6391 10.1917H59.5546V8.06095C59.5546 7.98459 59.4931 7.92228 59.417 7.92228H57.5227C57.4466 7.92228 57.3837 7.98459 57.3837 8.06095V10.1917H56.4738C56.3977 10.1917 56.3363 10.254 56.3363 10.3305V11.9582C56.3363 12.0346 56.3977 12.0971 56.4738 12.0971H57.3837V16.3093C57.3837 18.0106 58.2307 18.8736 59.9027 18.8736C60.5815 18.8736 61.1447 18.7332 61.6757 18.4319C61.7195 18.4085 61.7459 18.3617 61.7459 18.3119V16.7613C61.7459 16.7145 61.721 16.6692 61.68 16.6443C61.6391 16.618 61.5879 16.6165 61.5455 16.6384C61.1812 16.8213 60.8287 16.9061 60.4337 16.9061C59.8266 16.9061 59.5546 16.6297 59.5546 16.0123V12.0978H61.6391C61.7152 12.0978 61.7766 12.0355 61.7766 11.959V10.3314C61.7795 10.2549 61.7181 10.1926 61.6406 10.1926L61.6391 10.1917ZM68.9006 10.2001V9.93836C68.9006 9.16847 69.1961 8.82514 69.8573 8.82514C70.2523 8.82514 70.5697 8.90355 70.9252 9.02204C70.9691 9.03579 71.0144 9.02891 71.0495 9.00273C71.0861 8.97654 71.1066 8.93456 71.1066 8.89009V7.29414C71.1066 7.23313 71.0685 7.17916 71.0086 7.16116C70.6341 7.04955 70.1543 6.93501 69.4345 6.93501C67.6865 6.93501 66.7605 7.92008 66.7605 9.78271V10.1835H65.8506C65.7745 10.1835 65.7116 10.2458 65.7116 10.3222V11.9582C65.7116 12.0346 65.7745 12.0971 65.8506 12.0971H66.7605V18.5928C66.7605 18.6703 66.8234 18.7318 66.8995 18.7318H68.7924C68.8699 18.7318 68.9313 18.6703 68.9313 18.5928V12.0975H70.6999L73.4091 18.5928C73.1019 19.2745 72.7991 19.4105 72.3865 19.4105C72.053 19.4105 71.7005 19.311 71.3421 19.1136C71.3084 19.096 71.2675 19.0931 71.2324 19.1033C71.1958 19.1165 71.1651 19.1428 71.1505 19.1779L70.5083 20.5866C70.4775 20.6539 70.5039 20.7314 70.5682 20.7666C71.2382 21.1293 71.8424 21.2844 72.5899 21.2844C73.9884 21.2844 74.7622 20.632 75.4424 18.8795L78.7279 10.3896C78.7455 10.3469 78.7396 10.2987 78.7133 10.2608C78.6884 10.2232 78.646 10.2005 78.6007 10.2005H76.6288C76.5688 10.2005 76.5161 10.2381 76.4971 10.2935L74.4769 16.0621L72.2651 10.2897C72.2447 10.236 72.1935 10.2005 72.1364 10.2005H68.9006V10.2001ZM64.6906 10.1917H62.7962C62.7201 10.1917 62.6572 10.254 62.6572 10.3305V18.5928C62.6572 18.6703 62.7201 18.7318 62.7962 18.7318H64.6906C64.7666 18.7318 64.8295 18.6703 64.8295 18.5928V10.3311C64.8295 10.2546 64.7681 10.1923 64.6906 10.1923V10.1917ZM63.7544 6.42945C63.0039 6.42945 62.3954 7.03682 62.3954 7.78711C62.3954 8.53784 63.0039 9.14594 63.7544 9.14594C64.5048 9.14594 65.1119 8.53784 65.1119 7.78711C65.1119 7.03697 64.5033 6.42945 63.7544 6.42945ZM80.3458 12.8484C79.5969 12.8484 79.0132 12.2464 79.0132 11.5154C79.0132 10.7845 79.6042 10.1756 80.3532 10.1756C81.1021 10.1756 81.6858 10.7774 81.6858 11.5078C81.6858 12.2388 81.0948 12.8484 80.3458 12.8484ZM80.3532 10.3082C79.67 10.3082 79.1536 10.8509 79.1536 11.5154C79.1536 12.1797 79.6671 12.7151 80.3458 12.7151C81.029 12.7151 81.5454 12.1728 81.5454 11.5078C81.5454 10.8436 81.0319 10.3082 80.3532 10.3082ZM80.6487 11.6449L81.0261 12.1727H80.7072L80.3678 11.6885H80.0767V12.1727H79.8104V10.7736H80.4336C80.7598 10.7736 80.9734 10.94 80.9734 11.2199C80.9749 11.4493 80.8417 11.5895 80.6501 11.6449H80.6487ZM80.4234 11.0137H80.0767V11.4562H80.4234C80.596 11.4562 80.6998 11.3715 80.6998 11.2347C80.6998 11.0908 80.596 11.0137 80.4234 11.0137Z" fill="#4C4C4D"/>
</svg>
