<svg width="58" height="13" viewBox="0 0 58 13" fill="none" xmlns="http://www.w3.org/2000/svg">
<path fill-rule="evenodd" clip-rule="evenodd" d="M46.5555 4.01654C46.7738 4.39316 46.8452 4.82165 46.8688 5.30337L46.8997 5.94545V10.4352L46.9314 11.078C46.9947 12.1277 47.7689 12.9038 48.8266 12.9698L49.466 13.0015V5.94545L49.4977 5.30337C49.5239 4.82704 49.5947 4.39046 49.8163 4.01115C50.0422 3.62209 50.3665 3.2993 50.7565 3.07518C51.1466 2.85107 51.5888 2.73352 52.0386 2.73434C52.4885 2.73516 52.9302 2.85432 53.3195 3.07985C53.7088 3.30538 54.0318 3.62935 54.2563 4.01923C54.4746 4.39585 54.5426 4.83243 54.5689 5.30337L54.6006 5.94342V10.4352L54.6322 11.078C54.6982 12.133 55.4663 12.9092 56.5274 12.9698L57.1668 13.0015V5.30337C57.1668 3.94214 56.6262 2.63662 55.6638 1.67389C54.7015 0.711162 53.3962 0.170037 52.035 0.169501C51.3064 0.168733 50.586 0.323453 49.9221 0.623326C49.2581 0.923199 48.6657 1.36132 48.1846 1.90842C47.7032 1.36153 47.1108 0.92352 46.4469 0.623558C45.7829 0.323597 45.0627 0.168577 44.3342 0.168827C43.2683 0.168827 42.2793 0.492221 41.46 1.05075C40.9601 0.492894 39.8417 0.168827 39.1996 0.168827V13.0015L39.8417 12.9698C40.9156 12.8991 41.6918 12.1438 41.7335 11.078L41.7679 10.4352V5.94545L41.7996 5.30337C41.8265 4.81896 41.8939 4.39316 42.1128 4.01384C42.3389 3.62502 42.663 3.30231 43.0528 3.07792C43.4426 2.85353 43.8844 2.73532 44.3342 2.73509C44.7843 2.73519 45.2264 2.85363 45.6163 3.07855C46.0062 3.30347 46.3301 3.62694 46.5555 4.01654ZM2.62583 12.9705L3.2679 13.0015H12.8922L12.8606 12.3614C12.7736 11.3064 12.0265 10.5356 10.968 10.4669L10.326 10.4352H4.55204L12.2502 2.73442L12.2185 2.09504C12.1686 1.02919 11.3898 0.259108 10.326 0.200493L9.68389 0.171522L0.0595703 0.168827L0.0912359 0.810899C0.175453 1.85586 0.933406 2.64279 1.98309 2.70342L2.62583 2.73509H8.39975L0.701641 10.4359L0.733307 11.078C0.796638 12.1357 1.55998 12.9018 2.62583 12.9698V12.9705ZM36.6805 2.04721C37.2764 2.643 37.7492 3.35036 38.0717 4.12887C38.3942 4.90739 38.5602 5.74181 38.5602 6.58448C38.5602 7.42716 38.3942 8.26158 38.0717 9.0401C37.7492 9.81861 37.2764 10.526 36.6805 11.1218C35.4765 12.3248 33.8442 13.0005 32.1422 13.0005C30.4402 13.0005 28.8079 12.3248 27.6039 11.1218C25.0983 8.61614 25.0983 4.55283 27.6039 2.04721C28.1993 1.45161 28.9062 0.979113 29.6842 0.656704C30.4622 0.334295 31.296 0.168285 32.1382 0.168153C32.9817 0.167568 33.8171 0.333285 34.5965 0.655826C35.3759 0.978368 36.0841 1.4514 36.6805 2.04788V2.04721ZM34.8648 3.86427C35.5865 4.58653 35.9919 5.5658 35.9919 6.58684C35.9919 7.60789 35.5865 8.58715 34.8648 9.30941C34.1425 10.0311 33.1633 10.4365 32.1422 10.4365C31.1212 10.4365 30.1419 10.0311 29.4197 9.30941C28.6979 8.58715 28.2925 7.60789 28.2925 6.58684C28.2925 5.5658 28.6979 4.58653 29.4197 3.86427C30.1419 3.14256 31.1212 2.73715 32.1422 2.73715C33.1633 2.73715 34.1425 3.14256 34.8648 3.86427ZM18.6715 0.168153C19.5137 0.168373 20.3476 0.334489 21.1256 0.657015C21.9036 0.97954 22.6105 1.45216 23.2058 2.04788C25.7121 4.55283 25.7121 8.61681 23.2058 11.1218C22.0018 12.3248 20.3695 13.0005 18.6675 13.0005C16.9655 13.0005 15.3332 12.3248 14.1292 11.1218C11.6236 8.61614 11.6236 4.55283 14.1292 2.04721C14.7246 1.45161 15.4315 0.979113 16.2094 0.656704C16.9874 0.334295 17.8213 0.168285 18.6635 0.168153H18.6715ZM21.3901 3.86293C22.112 4.58521 22.5175 5.56462 22.5175 6.58583C22.5175 7.60704 22.112 8.58645 21.3901 9.30874C20.6678 10.0305 19.6885 10.4359 18.6675 10.4359C17.6465 10.4359 16.6672 10.0305 15.9449 9.30874C15.2232 8.58648 14.8178 7.60721 14.8178 6.58617C14.8178 5.56512 15.2232 4.58586 15.9449 3.8636C16.6672 3.14189 17.6465 2.73648 18.6675 2.73648C19.6885 2.73648 20.6678 3.14189 21.3901 3.8636V3.86293Z" fill="#4C4C4D"/>
</svg>
