<svg width="24" height="24" viewBox="0 0 24 24" fill="none" xmlns="http://www.w3.org/2000/svg">
<rect x="0.5" y="0.5" width="23" height="23" rx="3.5" stroke="#F1F1F3"/>
<path d="M9.02426 8.17574C8.78995 7.94142 8.41005 7.94142 8.17574 8.17574C7.94142 8.41005 7.94142 8.78995 8.17574 9.02426L11.1515 12L8.17574 14.9757C7.94142 15.2101 7.94142 15.59 8.17574 15.8243C8.41005 16.0586 8.78995 16.0586 9.02426 15.8243L12 12.8485L14.9757 15.8243C15.2101 16.0586 15.59 16.0586 15.8243 15.8243C16.0586 15.59 16.0586 15.2101 15.8243 14.9757L12.8485 12L15.8243 9.02426C16.0586 8.78995 16.0586 8.41005 15.8243 8.17574C15.59 7.94142 15.2101 7.94142 14.9757 8.17574L12 11.1515L9.02426 8.17574Z" fill="#262626"/>
</svg>
