<svg width="18" height="22" viewBox="0 0 18 22" fill="none" xmlns="http://www.w3.org/2000/svg">
<path fill-rule="evenodd" clip-rule="evenodd" d="M11.6152 0.594929C11.9165 0.762871 12.0643 1.1146 11.9736 1.44734L9.98195 8.75H17.25C17.5487 8.75 17.8189 8.92719 17.9379 9.20109C18.0569 9.475 18.0021 9.79341 17.7983 10.0117L7.29831 21.2617C7.06298 21.5139 6.68604 21.573 6.38481 21.4051C6.08357 21.2371 5.9357 20.8854 6.02644 20.5527L8.01808 13.25H0.750016C0.451369 13.25 0.181182 13.0728 0.062156 12.7989C-0.0568695 12.525 -0.00204775 12.2066 0.201725 11.9883L10.7017 0.738264C10.937 0.486131 11.314 0.426986 11.6152 0.594929Z" fill="#262626"/>
</svg>
